<?xml version="1.0"?>
<svg xmlns="http://www.w3.org/2000/svg" width="36" height="36" viewBox="0 0 36 36">
  <defs>
    <style>
      .cls-1 {
        fill: #fff;
        fill-rule: evenodd;
      }
    </style>
  </defs>
  <path id="Round-White" class="cls-1" d="M19,11a8,8,0,1,1-8,8A7.985,7.985,0,0,1,19,11Zm0,26A18.113,18.113,0,0,1,1,19,18.113,18.113,0,0,1,19,1a3.546,3.546,0,0,1,3.545,3.536A3.486,3.486,0,0,1,19,8,11.153,11.153,0,0,0,8,19,11.153,11.153,0,0,0,19,30,11.14,11.14,0,0,0,30,19a3.5,3.5,0,0,1,3.375-3.647A3.712,3.712,0,0,1,37,19,18.1,18.1,0,0,1,19,37Z" transform="translate(-1 -1)"/>
</svg>
